%TF.GenerationSoftware,KiCad,Pcbnew,7.0.1*%
%TF.CreationDate,2023-05-21T16:34:47+02:00*%
%TF.ProjectId,kicad,6b696361-642e-46b6-9963-61645f706362,rev?*%
%TF.SameCoordinates,Original*%
%TF.FileFunction,Legend,Bot*%
%TF.FilePolarity,Positive*%
%FSLAX46Y46*%
G04 Gerber Fmt 4.6, Leading zero omitted, Abs format (unit mm)*
G04 Created by KiCad (PCBNEW 7.0.1) date 2023-05-21 16:34:47*
%MOMM*%
%LPD*%
G01*
G04 APERTURE LIST*
%ADD10C,0.150000*%
%ADD11C,0.100000*%
%ADD12C,0.120000*%
G04 APERTURE END LIST*
D10*
X109995723Y-70274095D02*
X109995723Y-69474095D01*
X109995723Y-69474095D02*
X109805247Y-69474095D01*
X109805247Y-69474095D02*
X109690961Y-69512190D01*
X109690961Y-69512190D02*
X109614771Y-69588380D01*
X109614771Y-69588380D02*
X109576676Y-69664571D01*
X109576676Y-69664571D02*
X109538580Y-69816952D01*
X109538580Y-69816952D02*
X109538580Y-69931238D01*
X109538580Y-69931238D02*
X109576676Y-70083619D01*
X109576676Y-70083619D02*
X109614771Y-70159809D01*
X109614771Y-70159809D02*
X109690961Y-70236000D01*
X109690961Y-70236000D02*
X109805247Y-70274095D01*
X109805247Y-70274095D02*
X109995723Y-70274095D01*
X109195723Y-70274095D02*
X109195723Y-69740761D01*
X109195723Y-69474095D02*
X109233819Y-69512190D01*
X109233819Y-69512190D02*
X109195723Y-69550285D01*
X109195723Y-69550285D02*
X109157628Y-69512190D01*
X109157628Y-69512190D02*
X109195723Y-69474095D01*
X109195723Y-69474095D02*
X109195723Y-69550285D01*
X108814771Y-69740761D02*
X108814771Y-70274095D01*
X108814771Y-69816952D02*
X108776676Y-69778857D01*
X108776676Y-69778857D02*
X108700486Y-69740761D01*
X108700486Y-69740761D02*
X108586200Y-69740761D01*
X108586200Y-69740761D02*
X108510009Y-69778857D01*
X108510009Y-69778857D02*
X108471914Y-69855047D01*
X108471914Y-69855047D02*
X108471914Y-70274095D01*
X105248104Y-44949619D02*
X105248104Y-43949619D01*
X105248104Y-43949619D02*
X105010009Y-43949619D01*
X105010009Y-43949619D02*
X104867152Y-43997238D01*
X104867152Y-43997238D02*
X104771914Y-44092476D01*
X104771914Y-44092476D02*
X104724295Y-44187714D01*
X104724295Y-44187714D02*
X104676676Y-44378190D01*
X104676676Y-44378190D02*
X104676676Y-44521047D01*
X104676676Y-44521047D02*
X104724295Y-44711523D01*
X104724295Y-44711523D02*
X104771914Y-44806761D01*
X104771914Y-44806761D02*
X104867152Y-44902000D01*
X104867152Y-44902000D02*
X105010009Y-44949619D01*
X105010009Y-44949619D02*
X105248104Y-44949619D01*
X104710009Y-76474095D02*
X104443342Y-77274095D01*
X104443342Y-77274095D02*
X104176676Y-76474095D01*
X103567152Y-77274095D02*
X103567152Y-76855047D01*
X103567152Y-76855047D02*
X103605247Y-76778857D01*
X103605247Y-76778857D02*
X103681438Y-76740761D01*
X103681438Y-76740761D02*
X103833819Y-76740761D01*
X103833819Y-76740761D02*
X103910009Y-76778857D01*
X103567152Y-77236000D02*
X103643343Y-77274095D01*
X103643343Y-77274095D02*
X103833819Y-77274095D01*
X103833819Y-77274095D02*
X103910009Y-77236000D01*
X103910009Y-77236000D02*
X103948105Y-77159809D01*
X103948105Y-77159809D02*
X103948105Y-77083619D01*
X103948105Y-77083619D02*
X103910009Y-77007428D01*
X103910009Y-77007428D02*
X103833819Y-76969333D01*
X103833819Y-76969333D02*
X103643343Y-76969333D01*
X103643343Y-76969333D02*
X103567152Y-76931238D01*
X112524295Y-43997238D02*
X112619533Y-43949619D01*
X112619533Y-43949619D02*
X112762390Y-43949619D01*
X112762390Y-43949619D02*
X112905247Y-43997238D01*
X112905247Y-43997238D02*
X113000485Y-44092476D01*
X113000485Y-44092476D02*
X113048104Y-44187714D01*
X113048104Y-44187714D02*
X113095723Y-44378190D01*
X113095723Y-44378190D02*
X113095723Y-44521047D01*
X113095723Y-44521047D02*
X113048104Y-44711523D01*
X113048104Y-44711523D02*
X113000485Y-44806761D01*
X113000485Y-44806761D02*
X112905247Y-44902000D01*
X112905247Y-44902000D02*
X112762390Y-44949619D01*
X112762390Y-44949619D02*
X112667152Y-44949619D01*
X112667152Y-44949619D02*
X112524295Y-44902000D01*
X112524295Y-44902000D02*
X112476676Y-44854380D01*
X112476676Y-44854380D02*
X112476676Y-44521047D01*
X112476676Y-44521047D02*
X112667152Y-44521047D01*
X109914771Y-44425809D02*
X110248104Y-44425809D01*
X110248104Y-44949619D02*
X110248104Y-43949619D01*
X110248104Y-43949619D02*
X109771914Y-43949619D01*
X107495723Y-76968666D02*
X106886200Y-76968666D01*
X107190961Y-77349619D02*
X107190961Y-76587714D01*
X106124295Y-76349619D02*
X106505247Y-76349619D01*
X106505247Y-76349619D02*
X106543343Y-76825809D01*
X106543343Y-76825809D02*
X106505247Y-76778190D01*
X106505247Y-76778190D02*
X106429057Y-76730571D01*
X106429057Y-76730571D02*
X106238581Y-76730571D01*
X106238581Y-76730571D02*
X106162390Y-76778190D01*
X106162390Y-76778190D02*
X106124295Y-76825809D01*
X106124295Y-76825809D02*
X106086200Y-76921047D01*
X106086200Y-76921047D02*
X106086200Y-77159142D01*
X106086200Y-77159142D02*
X106124295Y-77254380D01*
X106124295Y-77254380D02*
X106162390Y-77302000D01*
X106162390Y-77302000D02*
X106238581Y-77349619D01*
X106238581Y-77349619D02*
X106429057Y-77349619D01*
X106429057Y-77349619D02*
X106505247Y-77302000D01*
X106505247Y-77302000D02*
X106543343Y-77254380D01*
X102276676Y-44854380D02*
X102324295Y-44902000D01*
X102324295Y-44902000D02*
X102467152Y-44949619D01*
X102467152Y-44949619D02*
X102562390Y-44949619D01*
X102562390Y-44949619D02*
X102705247Y-44902000D01*
X102705247Y-44902000D02*
X102800485Y-44806761D01*
X102800485Y-44806761D02*
X102848104Y-44711523D01*
X102848104Y-44711523D02*
X102895723Y-44521047D01*
X102895723Y-44521047D02*
X102895723Y-44378190D01*
X102895723Y-44378190D02*
X102848104Y-44187714D01*
X102848104Y-44187714D02*
X102800485Y-44092476D01*
X102800485Y-44092476D02*
X102705247Y-43997238D01*
X102705247Y-43997238D02*
X102562390Y-43949619D01*
X102562390Y-43949619D02*
X102467152Y-43949619D01*
X102467152Y-43949619D02*
X102324295Y-43997238D01*
X102324295Y-43997238D02*
X102276676Y-44044857D01*
X107848104Y-44425809D02*
X107514771Y-44425809D01*
X107371914Y-44949619D02*
X107848104Y-44949619D01*
X107848104Y-44949619D02*
X107848104Y-43949619D01*
X107848104Y-43949619D02*
X107371914Y-43949619D01*
X112356200Y-50381523D02*
X112308580Y-50238666D01*
X112308580Y-50238666D02*
X112308580Y-50000571D01*
X112308580Y-50000571D02*
X112356200Y-49905333D01*
X112356200Y-49905333D02*
X112403819Y-49857714D01*
X112403819Y-49857714D02*
X112499057Y-49810095D01*
X112499057Y-49810095D02*
X112594295Y-49810095D01*
X112594295Y-49810095D02*
X112689533Y-49857714D01*
X112689533Y-49857714D02*
X112737152Y-49905333D01*
X112737152Y-49905333D02*
X112784771Y-50000571D01*
X112784771Y-50000571D02*
X112832390Y-50191047D01*
X112832390Y-50191047D02*
X112880009Y-50286285D01*
X112880009Y-50286285D02*
X112927628Y-50333904D01*
X112927628Y-50333904D02*
X113022866Y-50381523D01*
X113022866Y-50381523D02*
X113118104Y-50381523D01*
X113118104Y-50381523D02*
X113213342Y-50333904D01*
X113213342Y-50333904D02*
X113260961Y-50286285D01*
X113260961Y-50286285D02*
X113308580Y-50191047D01*
X113308580Y-50191047D02*
X113308580Y-49952952D01*
X113308580Y-49952952D02*
X113260961Y-49810095D01*
X112308580Y-49381523D02*
X113308580Y-49381523D01*
X113308580Y-49381523D02*
X113308580Y-49143428D01*
X113308580Y-49143428D02*
X113260961Y-49000571D01*
X113260961Y-49000571D02*
X113165723Y-48905333D01*
X113165723Y-48905333D02*
X113070485Y-48857714D01*
X113070485Y-48857714D02*
X112880009Y-48810095D01*
X112880009Y-48810095D02*
X112737152Y-48810095D01*
X112737152Y-48810095D02*
X112546676Y-48857714D01*
X112546676Y-48857714D02*
X112451438Y-48905333D01*
X112451438Y-48905333D02*
X112356200Y-49000571D01*
X112356200Y-49000571D02*
X112308580Y-49143428D01*
X112308580Y-49143428D02*
X112308580Y-49381523D01*
X112594295Y-48429142D02*
X112594295Y-47952952D01*
X112308580Y-48524380D02*
X113308580Y-48191047D01*
X113308580Y-48191047D02*
X112308580Y-47857714D01*
X107295723Y-69855047D02*
X107029057Y-69855047D01*
X106914771Y-70274095D02*
X107295723Y-70274095D01*
X107295723Y-70274095D02*
X107295723Y-69474095D01*
X107295723Y-69474095D02*
X106914771Y-69474095D01*
X106571913Y-70274095D02*
X106571913Y-69474095D01*
X106571913Y-69474095D02*
X106114770Y-70274095D01*
X106114770Y-70274095D02*
X106114770Y-69474095D01*
X102038580Y-70274095D02*
X102305247Y-69893142D01*
X102495723Y-70274095D02*
X102495723Y-69474095D01*
X102495723Y-69474095D02*
X102190961Y-69474095D01*
X102190961Y-69474095D02*
X102114771Y-69512190D01*
X102114771Y-69512190D02*
X102076676Y-69550285D01*
X102076676Y-69550285D02*
X102038580Y-69626476D01*
X102038580Y-69626476D02*
X102038580Y-69740761D01*
X102038580Y-69740761D02*
X102076676Y-69816952D01*
X102076676Y-69816952D02*
X102114771Y-69855047D01*
X102114771Y-69855047D02*
X102190961Y-69893142D01*
X102190961Y-69893142D02*
X102495723Y-69893142D01*
X101733819Y-70236000D02*
X101619533Y-70274095D01*
X101619533Y-70274095D02*
X101429057Y-70274095D01*
X101429057Y-70274095D02*
X101352866Y-70236000D01*
X101352866Y-70236000D02*
X101314771Y-70197904D01*
X101314771Y-70197904D02*
X101276676Y-70121714D01*
X101276676Y-70121714D02*
X101276676Y-70045523D01*
X101276676Y-70045523D02*
X101314771Y-69969333D01*
X101314771Y-69969333D02*
X101352866Y-69931238D01*
X101352866Y-69931238D02*
X101429057Y-69893142D01*
X101429057Y-69893142D02*
X101581438Y-69855047D01*
X101581438Y-69855047D02*
X101657628Y-69816952D01*
X101657628Y-69816952D02*
X101695723Y-69778857D01*
X101695723Y-69778857D02*
X101733819Y-69702666D01*
X101733819Y-69702666D02*
X101733819Y-69626476D01*
X101733819Y-69626476D02*
X101695723Y-69550285D01*
X101695723Y-69550285D02*
X101657628Y-69512190D01*
X101657628Y-69512190D02*
X101581438Y-69474095D01*
X101581438Y-69474095D02*
X101390961Y-69474095D01*
X101390961Y-69474095D02*
X101276676Y-69512190D01*
X101048104Y-69474095D02*
X100590961Y-69474095D01*
X100819533Y-70274095D02*
X100819533Y-69474095D01*
X115348104Y-45049619D02*
X115348104Y-44049619D01*
X115348104Y-44049619D02*
X114967152Y-44049619D01*
X114967152Y-44049619D02*
X114871914Y-44097238D01*
X114871914Y-44097238D02*
X114824295Y-44144857D01*
X114824295Y-44144857D02*
X114776676Y-44240095D01*
X114776676Y-44240095D02*
X114776676Y-44382952D01*
X114776676Y-44382952D02*
X114824295Y-44478190D01*
X114824295Y-44478190D02*
X114871914Y-44525809D01*
X114871914Y-44525809D02*
X114967152Y-44573428D01*
X114967152Y-44573428D02*
X115348104Y-44573428D01*
X109976676Y-76512190D02*
X110052866Y-76474095D01*
X110052866Y-76474095D02*
X110167152Y-76474095D01*
X110167152Y-76474095D02*
X110281438Y-76512190D01*
X110281438Y-76512190D02*
X110357628Y-76588380D01*
X110357628Y-76588380D02*
X110395723Y-76664571D01*
X110395723Y-76664571D02*
X110433819Y-76816952D01*
X110433819Y-76816952D02*
X110433819Y-76931238D01*
X110433819Y-76931238D02*
X110395723Y-77083619D01*
X110395723Y-77083619D02*
X110357628Y-77159809D01*
X110357628Y-77159809D02*
X110281438Y-77236000D01*
X110281438Y-77236000D02*
X110167152Y-77274095D01*
X110167152Y-77274095D02*
X110090961Y-77274095D01*
X110090961Y-77274095D02*
X109976676Y-77236000D01*
X109976676Y-77236000D02*
X109938580Y-77197904D01*
X109938580Y-77197904D02*
X109938580Y-76931238D01*
X109938580Y-76931238D02*
X110090961Y-76931238D01*
X109595723Y-77274095D02*
X109595723Y-76474095D01*
X109595723Y-76474095D02*
X109138580Y-77274095D01*
X109138580Y-77274095D02*
X109138580Y-76474095D01*
X108757628Y-77274095D02*
X108757628Y-76474095D01*
X108757628Y-76474095D02*
X108567152Y-76474095D01*
X108567152Y-76474095D02*
X108452866Y-76512190D01*
X108452866Y-76512190D02*
X108376676Y-76588380D01*
X108376676Y-76588380D02*
X108338581Y-76664571D01*
X108338581Y-76664571D02*
X108300485Y-76816952D01*
X108300485Y-76816952D02*
X108300485Y-76931238D01*
X108300485Y-76931238D02*
X108338581Y-77083619D01*
X108338581Y-77083619D02*
X108376676Y-77159809D01*
X108376676Y-77159809D02*
X108452866Y-77236000D01*
X108452866Y-77236000D02*
X108567152Y-77274095D01*
X108567152Y-77274095D02*
X108757628Y-77274095D01*
X114756200Y-50181523D02*
X114708580Y-50038666D01*
X114708580Y-50038666D02*
X114708580Y-49800571D01*
X114708580Y-49800571D02*
X114756200Y-49705333D01*
X114756200Y-49705333D02*
X114803819Y-49657714D01*
X114803819Y-49657714D02*
X114899057Y-49610095D01*
X114899057Y-49610095D02*
X114994295Y-49610095D01*
X114994295Y-49610095D02*
X115089533Y-49657714D01*
X115089533Y-49657714D02*
X115137152Y-49705333D01*
X115137152Y-49705333D02*
X115184771Y-49800571D01*
X115184771Y-49800571D02*
X115232390Y-49991047D01*
X115232390Y-49991047D02*
X115280009Y-50086285D01*
X115280009Y-50086285D02*
X115327628Y-50133904D01*
X115327628Y-50133904D02*
X115422866Y-50181523D01*
X115422866Y-50181523D02*
X115518104Y-50181523D01*
X115518104Y-50181523D02*
X115613342Y-50133904D01*
X115613342Y-50133904D02*
X115660961Y-50086285D01*
X115660961Y-50086285D02*
X115708580Y-49991047D01*
X115708580Y-49991047D02*
X115708580Y-49752952D01*
X115708580Y-49752952D02*
X115660961Y-49610095D01*
X114803819Y-48610095D02*
X114756200Y-48657714D01*
X114756200Y-48657714D02*
X114708580Y-48800571D01*
X114708580Y-48800571D02*
X114708580Y-48895809D01*
X114708580Y-48895809D02*
X114756200Y-49038666D01*
X114756200Y-49038666D02*
X114851438Y-49133904D01*
X114851438Y-49133904D02*
X114946676Y-49181523D01*
X114946676Y-49181523D02*
X115137152Y-49229142D01*
X115137152Y-49229142D02*
X115280009Y-49229142D01*
X115280009Y-49229142D02*
X115470485Y-49181523D01*
X115470485Y-49181523D02*
X115565723Y-49133904D01*
X115565723Y-49133904D02*
X115660961Y-49038666D01*
X115660961Y-49038666D02*
X115708580Y-48895809D01*
X115708580Y-48895809D02*
X115708580Y-48800571D01*
X115708580Y-48800571D02*
X115660961Y-48657714D01*
X115660961Y-48657714D02*
X115613342Y-48610095D01*
X114708580Y-47705333D02*
X114708580Y-48181523D01*
X114708580Y-48181523D02*
X115708580Y-48181523D01*
X104638580Y-70197904D02*
X104676676Y-70236000D01*
X104676676Y-70236000D02*
X104790961Y-70274095D01*
X104790961Y-70274095D02*
X104867152Y-70274095D01*
X104867152Y-70274095D02*
X104981438Y-70236000D01*
X104981438Y-70236000D02*
X105057628Y-70159809D01*
X105057628Y-70159809D02*
X105095723Y-70083619D01*
X105095723Y-70083619D02*
X105133819Y-69931238D01*
X105133819Y-69931238D02*
X105133819Y-69816952D01*
X105133819Y-69816952D02*
X105095723Y-69664571D01*
X105095723Y-69664571D02*
X105057628Y-69588380D01*
X105057628Y-69588380D02*
X104981438Y-69512190D01*
X104981438Y-69512190D02*
X104867152Y-69474095D01*
X104867152Y-69474095D02*
X104790961Y-69474095D01*
X104790961Y-69474095D02*
X104676676Y-69512190D01*
X104676676Y-69512190D02*
X104638580Y-69550285D01*
X103914771Y-70274095D02*
X104295723Y-70274095D01*
X104295723Y-70274095D02*
X104295723Y-69474095D01*
X103648104Y-70274095D02*
X103648104Y-69474095D01*
X103190961Y-70274095D02*
X103533819Y-69816952D01*
X103190961Y-69474095D02*
X103648104Y-69931238D01*
X97695723Y-44663904D02*
X97219533Y-44663904D01*
X97790961Y-44949619D02*
X97457628Y-43949619D01*
X97457628Y-43949619D02*
X97124295Y-44949619D01*
X99914771Y-44425809D02*
X99771914Y-44473428D01*
X99771914Y-44473428D02*
X99724295Y-44521047D01*
X99724295Y-44521047D02*
X99676676Y-44616285D01*
X99676676Y-44616285D02*
X99676676Y-44759142D01*
X99676676Y-44759142D02*
X99724295Y-44854380D01*
X99724295Y-44854380D02*
X99771914Y-44902000D01*
X99771914Y-44902000D02*
X99867152Y-44949619D01*
X99867152Y-44949619D02*
X100248104Y-44949619D01*
X100248104Y-44949619D02*
X100248104Y-43949619D01*
X100248104Y-43949619D02*
X99914771Y-43949619D01*
X99914771Y-43949619D02*
X99819533Y-43997238D01*
X99819533Y-43997238D02*
X99771914Y-44044857D01*
X99771914Y-44044857D02*
X99724295Y-44140095D01*
X99724295Y-44140095D02*
X99724295Y-44235333D01*
X99724295Y-44235333D02*
X99771914Y-44330571D01*
X99771914Y-44330571D02*
X99819533Y-44378190D01*
X99819533Y-44378190D02*
X99914771Y-44425809D01*
X99914771Y-44425809D02*
X100248104Y-44425809D01*
D11*
%TO.C,VFD8*%
X183701675Y-99542095D02*
X183435008Y-100342095D01*
X183435008Y-100342095D02*
X183168342Y-99542095D01*
X182635009Y-99923047D02*
X182901675Y-99923047D01*
X182901675Y-100342095D02*
X182901675Y-99542095D01*
X182901675Y-99542095D02*
X182520723Y-99542095D01*
X182215961Y-100342095D02*
X182215961Y-99542095D01*
X182215961Y-99542095D02*
X182025485Y-99542095D01*
X182025485Y-99542095D02*
X181911199Y-99580190D01*
X181911199Y-99580190D02*
X181835009Y-99656380D01*
X181835009Y-99656380D02*
X181796914Y-99732571D01*
X181796914Y-99732571D02*
X181758818Y-99884952D01*
X181758818Y-99884952D02*
X181758818Y-99999238D01*
X181758818Y-99999238D02*
X181796914Y-100151619D01*
X181796914Y-100151619D02*
X181835009Y-100227809D01*
X181835009Y-100227809D02*
X181911199Y-100304000D01*
X181911199Y-100304000D02*
X182025485Y-100342095D01*
X182025485Y-100342095D02*
X182215961Y-100342095D01*
X181301676Y-99884952D02*
X181377866Y-99846857D01*
X181377866Y-99846857D02*
X181415961Y-99808761D01*
X181415961Y-99808761D02*
X181454057Y-99732571D01*
X181454057Y-99732571D02*
X181454057Y-99694476D01*
X181454057Y-99694476D02*
X181415961Y-99618285D01*
X181415961Y-99618285D02*
X181377866Y-99580190D01*
X181377866Y-99580190D02*
X181301676Y-99542095D01*
X181301676Y-99542095D02*
X181149295Y-99542095D01*
X181149295Y-99542095D02*
X181073104Y-99580190D01*
X181073104Y-99580190D02*
X181035009Y-99618285D01*
X181035009Y-99618285D02*
X180996914Y-99694476D01*
X180996914Y-99694476D02*
X180996914Y-99732571D01*
X180996914Y-99732571D02*
X181035009Y-99808761D01*
X181035009Y-99808761D02*
X181073104Y-99846857D01*
X181073104Y-99846857D02*
X181149295Y-99884952D01*
X181149295Y-99884952D02*
X181301676Y-99884952D01*
X181301676Y-99884952D02*
X181377866Y-99923047D01*
X181377866Y-99923047D02*
X181415961Y-99961142D01*
X181415961Y-99961142D02*
X181454057Y-100037333D01*
X181454057Y-100037333D02*
X181454057Y-100189714D01*
X181454057Y-100189714D02*
X181415961Y-100265904D01*
X181415961Y-100265904D02*
X181377866Y-100304000D01*
X181377866Y-100304000D02*
X181301676Y-100342095D01*
X181301676Y-100342095D02*
X181149295Y-100342095D01*
X181149295Y-100342095D02*
X181073104Y-100304000D01*
X181073104Y-100304000D02*
X181035009Y-100265904D01*
X181035009Y-100265904D02*
X180996914Y-100189714D01*
X180996914Y-100189714D02*
X180996914Y-100037333D01*
X180996914Y-100037333D02*
X181035009Y-99961142D01*
X181035009Y-99961142D02*
X181073104Y-99923047D01*
X181073104Y-99923047D02*
X181149295Y-99884952D01*
%TO.C,VFD6*%
X133551675Y-99442095D02*
X133285008Y-100242095D01*
X133285008Y-100242095D02*
X133018342Y-99442095D01*
X132485009Y-99823047D02*
X132751675Y-99823047D01*
X132751675Y-100242095D02*
X132751675Y-99442095D01*
X132751675Y-99442095D02*
X132370723Y-99442095D01*
X132065961Y-100242095D02*
X132065961Y-99442095D01*
X132065961Y-99442095D02*
X131875485Y-99442095D01*
X131875485Y-99442095D02*
X131761199Y-99480190D01*
X131761199Y-99480190D02*
X131685009Y-99556380D01*
X131685009Y-99556380D02*
X131646914Y-99632571D01*
X131646914Y-99632571D02*
X131608818Y-99784952D01*
X131608818Y-99784952D02*
X131608818Y-99899238D01*
X131608818Y-99899238D02*
X131646914Y-100051619D01*
X131646914Y-100051619D02*
X131685009Y-100127809D01*
X131685009Y-100127809D02*
X131761199Y-100204000D01*
X131761199Y-100204000D02*
X131875485Y-100242095D01*
X131875485Y-100242095D02*
X132065961Y-100242095D01*
X130923104Y-99442095D02*
X131075485Y-99442095D01*
X131075485Y-99442095D02*
X131151676Y-99480190D01*
X131151676Y-99480190D02*
X131189771Y-99518285D01*
X131189771Y-99518285D02*
X131265961Y-99632571D01*
X131265961Y-99632571D02*
X131304057Y-99784952D01*
X131304057Y-99784952D02*
X131304057Y-100089714D01*
X131304057Y-100089714D02*
X131265961Y-100165904D01*
X131265961Y-100165904D02*
X131227866Y-100204000D01*
X131227866Y-100204000D02*
X131151676Y-100242095D01*
X131151676Y-100242095D02*
X130999295Y-100242095D01*
X130999295Y-100242095D02*
X130923104Y-100204000D01*
X130923104Y-100204000D02*
X130885009Y-100165904D01*
X130885009Y-100165904D02*
X130846914Y-100089714D01*
X130846914Y-100089714D02*
X130846914Y-99899238D01*
X130846914Y-99899238D02*
X130885009Y-99823047D01*
X130885009Y-99823047D02*
X130923104Y-99784952D01*
X130923104Y-99784952D02*
X130999295Y-99746857D01*
X130999295Y-99746857D02*
X131151676Y-99746857D01*
X131151676Y-99746857D02*
X131227866Y-99784952D01*
X131227866Y-99784952D02*
X131265961Y-99823047D01*
X131265961Y-99823047D02*
X131304057Y-99899238D01*
%TO.C,VFD2*%
X133676675Y-52742095D02*
X133410008Y-53542095D01*
X133410008Y-53542095D02*
X133143342Y-52742095D01*
X132610009Y-53123047D02*
X132876675Y-53123047D01*
X132876675Y-53542095D02*
X132876675Y-52742095D01*
X132876675Y-52742095D02*
X132495723Y-52742095D01*
X132190961Y-53542095D02*
X132190961Y-52742095D01*
X132190961Y-52742095D02*
X132000485Y-52742095D01*
X132000485Y-52742095D02*
X131886199Y-52780190D01*
X131886199Y-52780190D02*
X131810009Y-52856380D01*
X131810009Y-52856380D02*
X131771914Y-52932571D01*
X131771914Y-52932571D02*
X131733818Y-53084952D01*
X131733818Y-53084952D02*
X131733818Y-53199238D01*
X131733818Y-53199238D02*
X131771914Y-53351619D01*
X131771914Y-53351619D02*
X131810009Y-53427809D01*
X131810009Y-53427809D02*
X131886199Y-53504000D01*
X131886199Y-53504000D02*
X132000485Y-53542095D01*
X132000485Y-53542095D02*
X132190961Y-53542095D01*
X131429057Y-52818285D02*
X131390961Y-52780190D01*
X131390961Y-52780190D02*
X131314771Y-52742095D01*
X131314771Y-52742095D02*
X131124295Y-52742095D01*
X131124295Y-52742095D02*
X131048104Y-52780190D01*
X131048104Y-52780190D02*
X131010009Y-52818285D01*
X131010009Y-52818285D02*
X130971914Y-52894476D01*
X130971914Y-52894476D02*
X130971914Y-52970666D01*
X130971914Y-52970666D02*
X131010009Y-53084952D01*
X131010009Y-53084952D02*
X131467152Y-53542095D01*
X131467152Y-53542095D02*
X130971914Y-53542095D01*
%TO.C,VFD7*%
X158576675Y-99542095D02*
X158310008Y-100342095D01*
X158310008Y-100342095D02*
X158043342Y-99542095D01*
X157510009Y-99923047D02*
X157776675Y-99923047D01*
X157776675Y-100342095D02*
X157776675Y-99542095D01*
X157776675Y-99542095D02*
X157395723Y-99542095D01*
X157090961Y-100342095D02*
X157090961Y-99542095D01*
X157090961Y-99542095D02*
X156900485Y-99542095D01*
X156900485Y-99542095D02*
X156786199Y-99580190D01*
X156786199Y-99580190D02*
X156710009Y-99656380D01*
X156710009Y-99656380D02*
X156671914Y-99732571D01*
X156671914Y-99732571D02*
X156633818Y-99884952D01*
X156633818Y-99884952D02*
X156633818Y-99999238D01*
X156633818Y-99999238D02*
X156671914Y-100151619D01*
X156671914Y-100151619D02*
X156710009Y-100227809D01*
X156710009Y-100227809D02*
X156786199Y-100304000D01*
X156786199Y-100304000D02*
X156900485Y-100342095D01*
X156900485Y-100342095D02*
X157090961Y-100342095D01*
X156367152Y-99542095D02*
X155833818Y-99542095D01*
X155833818Y-99542095D02*
X156176676Y-100342095D01*
%TO.C,VFD1*%
X108576675Y-52742095D02*
X108310008Y-53542095D01*
X108310008Y-53542095D02*
X108043342Y-52742095D01*
X107510009Y-53123047D02*
X107776675Y-53123047D01*
X107776675Y-53542095D02*
X107776675Y-52742095D01*
X107776675Y-52742095D02*
X107395723Y-52742095D01*
X107090961Y-53542095D02*
X107090961Y-52742095D01*
X107090961Y-52742095D02*
X106900485Y-52742095D01*
X106900485Y-52742095D02*
X106786199Y-52780190D01*
X106786199Y-52780190D02*
X106710009Y-52856380D01*
X106710009Y-52856380D02*
X106671914Y-52932571D01*
X106671914Y-52932571D02*
X106633818Y-53084952D01*
X106633818Y-53084952D02*
X106633818Y-53199238D01*
X106633818Y-53199238D02*
X106671914Y-53351619D01*
X106671914Y-53351619D02*
X106710009Y-53427809D01*
X106710009Y-53427809D02*
X106786199Y-53504000D01*
X106786199Y-53504000D02*
X106900485Y-53542095D01*
X106900485Y-53542095D02*
X107090961Y-53542095D01*
X105871914Y-53542095D02*
X106329057Y-53542095D01*
X106100485Y-53542095D02*
X106100485Y-52742095D01*
X106100485Y-52742095D02*
X106176676Y-52856380D01*
X106176676Y-52856380D02*
X106252866Y-52932571D01*
X106252866Y-52932571D02*
X106329057Y-52970666D01*
%TO.C,VFD3*%
X158776675Y-52642095D02*
X158510008Y-53442095D01*
X158510008Y-53442095D02*
X158243342Y-52642095D01*
X157710009Y-53023047D02*
X157976675Y-53023047D01*
X157976675Y-53442095D02*
X157976675Y-52642095D01*
X157976675Y-52642095D02*
X157595723Y-52642095D01*
X157290961Y-53442095D02*
X157290961Y-52642095D01*
X157290961Y-52642095D02*
X157100485Y-52642095D01*
X157100485Y-52642095D02*
X156986199Y-52680190D01*
X156986199Y-52680190D02*
X156910009Y-52756380D01*
X156910009Y-52756380D02*
X156871914Y-52832571D01*
X156871914Y-52832571D02*
X156833818Y-52984952D01*
X156833818Y-52984952D02*
X156833818Y-53099238D01*
X156833818Y-53099238D02*
X156871914Y-53251619D01*
X156871914Y-53251619D02*
X156910009Y-53327809D01*
X156910009Y-53327809D02*
X156986199Y-53404000D01*
X156986199Y-53404000D02*
X157100485Y-53442095D01*
X157100485Y-53442095D02*
X157290961Y-53442095D01*
X156567152Y-52642095D02*
X156071914Y-52642095D01*
X156071914Y-52642095D02*
X156338580Y-52946857D01*
X156338580Y-52946857D02*
X156224295Y-52946857D01*
X156224295Y-52946857D02*
X156148104Y-52984952D01*
X156148104Y-52984952D02*
X156110009Y-53023047D01*
X156110009Y-53023047D02*
X156071914Y-53099238D01*
X156071914Y-53099238D02*
X156071914Y-53289714D01*
X156071914Y-53289714D02*
X156110009Y-53365904D01*
X156110009Y-53365904D02*
X156148104Y-53404000D01*
X156148104Y-53404000D02*
X156224295Y-53442095D01*
X156224295Y-53442095D02*
X156452866Y-53442095D01*
X156452866Y-53442095D02*
X156529057Y-53404000D01*
X156529057Y-53404000D02*
X156567152Y-53365904D01*
%TO.C,VFD5*%
X108476675Y-99442095D02*
X108210008Y-100242095D01*
X108210008Y-100242095D02*
X107943342Y-99442095D01*
X107410009Y-99823047D02*
X107676675Y-99823047D01*
X107676675Y-100242095D02*
X107676675Y-99442095D01*
X107676675Y-99442095D02*
X107295723Y-99442095D01*
X106990961Y-100242095D02*
X106990961Y-99442095D01*
X106990961Y-99442095D02*
X106800485Y-99442095D01*
X106800485Y-99442095D02*
X106686199Y-99480190D01*
X106686199Y-99480190D02*
X106610009Y-99556380D01*
X106610009Y-99556380D02*
X106571914Y-99632571D01*
X106571914Y-99632571D02*
X106533818Y-99784952D01*
X106533818Y-99784952D02*
X106533818Y-99899238D01*
X106533818Y-99899238D02*
X106571914Y-100051619D01*
X106571914Y-100051619D02*
X106610009Y-100127809D01*
X106610009Y-100127809D02*
X106686199Y-100204000D01*
X106686199Y-100204000D02*
X106800485Y-100242095D01*
X106800485Y-100242095D02*
X106990961Y-100242095D01*
X105810009Y-99442095D02*
X106190961Y-99442095D01*
X106190961Y-99442095D02*
X106229057Y-99823047D01*
X106229057Y-99823047D02*
X106190961Y-99784952D01*
X106190961Y-99784952D02*
X106114771Y-99746857D01*
X106114771Y-99746857D02*
X105924295Y-99746857D01*
X105924295Y-99746857D02*
X105848104Y-99784952D01*
X105848104Y-99784952D02*
X105810009Y-99823047D01*
X105810009Y-99823047D02*
X105771914Y-99899238D01*
X105771914Y-99899238D02*
X105771914Y-100089714D01*
X105771914Y-100089714D02*
X105810009Y-100165904D01*
X105810009Y-100165904D02*
X105848104Y-100204000D01*
X105848104Y-100204000D02*
X105924295Y-100242095D01*
X105924295Y-100242095D02*
X106114771Y-100242095D01*
X106114771Y-100242095D02*
X106190961Y-100204000D01*
X106190961Y-100204000D02*
X106229057Y-100165904D01*
%TO.C,VFD4*%
X183817775Y-52542095D02*
X183551108Y-53342095D01*
X183551108Y-53342095D02*
X183284442Y-52542095D01*
X182751109Y-52923047D02*
X183017775Y-52923047D01*
X183017775Y-53342095D02*
X183017775Y-52542095D01*
X183017775Y-52542095D02*
X182636823Y-52542095D01*
X182332061Y-53342095D02*
X182332061Y-52542095D01*
X182332061Y-52542095D02*
X182141585Y-52542095D01*
X182141585Y-52542095D02*
X182027299Y-52580190D01*
X182027299Y-52580190D02*
X181951109Y-52656380D01*
X181951109Y-52656380D02*
X181913014Y-52732571D01*
X181913014Y-52732571D02*
X181874918Y-52884952D01*
X181874918Y-52884952D02*
X181874918Y-52999238D01*
X181874918Y-52999238D02*
X181913014Y-53151619D01*
X181913014Y-53151619D02*
X181951109Y-53227809D01*
X181951109Y-53227809D02*
X182027299Y-53304000D01*
X182027299Y-53304000D02*
X182141585Y-53342095D01*
X182141585Y-53342095D02*
X182332061Y-53342095D01*
X181189204Y-52808761D02*
X181189204Y-53342095D01*
X181379680Y-52504000D02*
X181570157Y-53075428D01*
X181570157Y-53075428D02*
X181074918Y-53075428D01*
D12*
%TO.C,LED7*%
X158706200Y-106587000D02*
X155616200Y-106587000D01*
X157161662Y-101037001D02*
G75*
G03*
X155616370Y-106586999I-462J-2989999D01*
G01*
X158706030Y-106587000D02*
G75*
G03*
X157160738Y-101037000I-1544830J2560000D01*
G01*
%TO.C,LED3*%
X158996200Y-60002000D02*
X155906200Y-60002000D01*
X157451662Y-54452001D02*
G75*
G03*
X155906370Y-60001999I-462J-2989999D01*
G01*
X158996030Y-60002000D02*
G75*
G03*
X157450738Y-54452000I-1544830J2560000D01*
G01*
D11*
%TO.C,VFD8*%
X189382268Y-103915800D02*
G75*
G03*
X189382268Y-103915800I-7071068J0D01*
G01*
%TO.C,VFD6*%
X139232268Y-103915800D02*
G75*
G03*
X139232268Y-103915800I-7071068J0D01*
G01*
%TO.C,VFD2*%
X139487568Y-57311400D02*
G75*
G03*
X139487568Y-57311400I-7071068J0D01*
G01*
%TO.C,VFD7*%
X164232268Y-103915800D02*
G75*
G03*
X164232268Y-103915800I-7071068J0D01*
G01*
D12*
%TO.C,LED4*%
X183972300Y-60002000D02*
X180882300Y-60002000D01*
X182427762Y-54452001D02*
G75*
G03*
X180882470Y-60001999I-462J-2989999D01*
G01*
X183972130Y-60002000D02*
G75*
G03*
X182426838Y-54452000I-1544830J2560000D01*
G01*
%TO.C,LED2*%
X133996200Y-60002000D02*
X130906200Y-60002000D01*
X132451662Y-54452001D02*
G75*
G03*
X130906370Y-60001999I-462J-2989999D01*
G01*
X133996030Y-60002000D02*
G75*
G03*
X132450738Y-54452000I-1544830J2560000D01*
G01*
%TO.C,LED5*%
X108706200Y-106587000D02*
X105616200Y-106587000D01*
X107161662Y-101037001D02*
G75*
G03*
X105616370Y-106586999I-462J-2989999D01*
G01*
X108706030Y-106587000D02*
G75*
G03*
X107160738Y-101037000I-1544830J2560000D01*
G01*
D11*
%TO.C,VFD1*%
X114482268Y-57344200D02*
G75*
G03*
X114482268Y-57344200I-7071068J0D01*
G01*
D12*
%TO.C,LED6*%
X133706200Y-106587000D02*
X130616200Y-106587000D01*
X132161662Y-101037001D02*
G75*
G03*
X130616370Y-106586999I-462J-2989999D01*
G01*
X133706030Y-106587000D02*
G75*
G03*
X132160738Y-101037000I-1544830J2560000D01*
G01*
D11*
%TO.C,VFD3*%
X164492968Y-57377000D02*
G75*
G03*
X164492968Y-57377000I-7071068J0D01*
G01*
D12*
%TO.C,LED1*%
X108956200Y-60002000D02*
X105866200Y-60002000D01*
X107411662Y-54452001D02*
G75*
G03*
X105866370Y-60001999I-462J-2989999D01*
G01*
X108956030Y-60002000D02*
G75*
G03*
X107410738Y-54452000I-1544830J2560000D01*
G01*
D11*
%TO.C,VFD5*%
X114236068Y-103962000D02*
G75*
G03*
X114236068Y-103962000I-7071068J0D01*
G01*
%TO.C,VFD4*%
X189498368Y-57409800D02*
G75*
G03*
X189498368Y-57409800I-7071068J0D01*
G01*
D12*
%TO.C,LED8*%
X183856200Y-106587000D02*
X180766200Y-106587000D01*
X182311662Y-101037001D02*
G75*
G03*
X180766370Y-106586999I-462J-2989999D01*
G01*
X183856030Y-106587000D02*
G75*
G03*
X182310738Y-101037000I-1544830J2560000D01*
G01*
%TD*%
M02*
