%TF.GenerationSoftware,KiCad,Pcbnew,7.0.1*%
%TF.CreationDate,2023-05-21T16:34:47+02:00*%
%TF.ProjectId,kicad,6b696361-642e-46b6-9963-61645f706362,rev?*%
%TF.SameCoordinates,Original*%
%TF.FileFunction,Soldermask,Bot*%
%TF.FilePolarity,Negative*%
%FSLAX46Y46*%
G04 Gerber Fmt 4.6, Leading zero omitted, Abs format (unit mm)*
G04 Created by KiCad (PCBNEW 7.0.1) date 2023-05-21 16:34:47*
%MOMM*%
%LPD*%
G01*
G04 APERTURE LIST*
G04 Aperture macros list*
%AMRoundRect*
0 Rectangle with rounded corners*
0 $1 Rounding radius*
0 $2 $3 $4 $5 $6 $7 $8 $9 X,Y pos of 4 corners*
0 Add a 4 corners polygon primitive as box body*
4,1,4,$2,$3,$4,$5,$6,$7,$8,$9,$2,$3,0*
0 Add four circle primitives for the rounded corners*
1,1,$1+$1,$2,$3*
1,1,$1+$1,$4,$5*
1,1,$1+$1,$6,$7*
1,1,$1+$1,$8,$9*
0 Add four rect primitives between the rounded corners*
20,1,$1+$1,$2,$3,$4,$5,0*
20,1,$1+$1,$4,$5,$6,$7,0*
20,1,$1+$1,$6,$7,$8,$9,0*
20,1,$1+$1,$8,$9,$2,$3,0*%
%AMHorizOval*
0 Thick line with rounded ends*
0 $1 width*
0 $2 $3 position (X,Y) of the first rounded end (center of the circle)*
0 $4 $5 position (X,Y) of the second rounded end (center of the circle)*
0 Add line between two ends*
20,1,$1,$2,$3,$4,$5,0*
0 Add two circle primitives to create the rounded ends*
1,1,$1,$2,$3*
1,1,$1,$4,$5*%
G04 Aperture macros list end*
%ADD10R,1.600000X1.600000*%
%ADD11O,1.600000X1.600000*%
%ADD12R,1.800000X1.800000*%
%ADD13O,1.800000X1.800000*%
%ADD14C,1.600000*%
%ADD15R,1.700000X1.700000*%
%ADD16O,1.700000X1.700000*%
%ADD17RoundRect,0.250000X-0.620000X-0.845000X0.620000X-0.845000X0.620000X0.845000X-0.620000X0.845000X0*%
%ADD18O,1.740000X2.190000*%
%ADD19RoundRect,0.250000X0.620000X0.845000X-0.620000X0.845000X-0.620000X-0.845000X0.620000X-0.845000X0*%
%ADD20C,2.340000*%
%ADD21O,1.200000X0.900000*%
%ADD22HorizOval,1.500000X0.125000X0.216506X-0.125000X-0.216506X0*%
%ADD23HorizOval,1.500000X0.216506X0.125000X-0.216506X-0.125000X0*%
%ADD24O,2.000000X1.500000*%
%ADD25HorizOval,1.500000X-0.216506X0.125000X0.216506X-0.125000X0*%
%ADD26HorizOval,1.500000X-0.125000X0.216506X0.125000X-0.216506X0*%
%ADD27O,1.500000X2.000000*%
%ADD28HorizOval,1.500000X-0.125000X-0.216506X0.125000X0.216506X0*%
%ADD29HorizOval,1.500000X-0.216506X-0.125000X0.216506X0.125000X0*%
G04 APERTURE END LIST*
D10*
%TO.C,D1*%
X140431200Y-50752000D03*
D11*
X148051200Y-50752000D03*
%TD*%
D10*
%TO.C,U1*%
X140441200Y-47567000D03*
D11*
X142981200Y-47567000D03*
X145521200Y-47567000D03*
X148061200Y-47567000D03*
X148061200Y-39947000D03*
X145521200Y-39947000D03*
X142981200Y-39947000D03*
X140441200Y-39947000D03*
%TD*%
D10*
%TO.C,U4*%
X119031200Y-47567000D03*
D11*
X121571200Y-47567000D03*
X124111200Y-47567000D03*
X126651200Y-47567000D03*
X129191200Y-47567000D03*
X131731200Y-47567000D03*
X134271200Y-47567000D03*
X136811200Y-47567000D03*
X136811200Y-39947000D03*
X134271200Y-39947000D03*
X131731200Y-39947000D03*
X129191200Y-39947000D03*
X126651200Y-39947000D03*
X124111200Y-39947000D03*
X121571200Y-39947000D03*
X119031200Y-39947000D03*
%TD*%
D12*
%TO.C,Q1*%
X167976200Y-43197000D03*
D13*
X167976200Y-45737000D03*
X167976200Y-48277000D03*
%TD*%
D14*
%TO.C,C4*%
X167696200Y-64232000D03*
X170196200Y-64232000D03*
%TD*%
D10*
%TO.C,U5*%
X114396200Y-74882000D03*
D11*
X116936200Y-74882000D03*
X119476200Y-74882000D03*
X122016200Y-74882000D03*
X124556200Y-74882000D03*
X127096200Y-74882000D03*
X129636200Y-74882000D03*
X132176200Y-74882000D03*
X134716200Y-74882000D03*
X134716200Y-67262000D03*
X132176200Y-67262000D03*
X129636200Y-67262000D03*
X127096200Y-67262000D03*
X124556200Y-67262000D03*
X122016200Y-67262000D03*
X119476200Y-67262000D03*
X116936200Y-67262000D03*
X114396200Y-67262000D03*
%TD*%
D14*
%TO.C,C1*%
X151466200Y-39407000D03*
X151466200Y-41907000D03*
%TD*%
%TO.C,C2*%
X151466200Y-46987000D03*
X151466200Y-44487000D03*
%TD*%
D15*
%TO.C,J6*%
X96011200Y-123317000D03*
D16*
X96011200Y-120777000D03*
X96011200Y-118237000D03*
X96011200Y-115697000D03*
X96011200Y-113157000D03*
X96011200Y-110617000D03*
X96011200Y-108077000D03*
X96011200Y-105537000D03*
X96011200Y-102997000D03*
X96011200Y-100457000D03*
X96011200Y-97917000D03*
X96011200Y-95377000D03*
X96011200Y-92837000D03*
X96011200Y-90297000D03*
X96011200Y-87757000D03*
X96011200Y-85217000D03*
%TD*%
D14*
%TO.C,R1*%
X175596200Y-39387000D03*
D11*
X167976200Y-39387000D03*
%TD*%
D10*
%TO.C,U3*%
X138526200Y-74942000D03*
D11*
X141066200Y-74942000D03*
X143606200Y-74942000D03*
X146146200Y-74942000D03*
X148686200Y-74942000D03*
X151226200Y-74942000D03*
X153766200Y-74942000D03*
X156306200Y-74942000D03*
X158846200Y-74942000D03*
X158846200Y-67322000D03*
X156306200Y-67322000D03*
X153766200Y-67322000D03*
X151226200Y-67322000D03*
X148686200Y-67322000D03*
X146146200Y-67322000D03*
X143606200Y-67322000D03*
X141066200Y-67322000D03*
X138526200Y-67322000D03*
%TD*%
D17*
%TO.C,J3*%
X112731200Y-46372000D03*
D18*
X115271200Y-46372000D03*
%TD*%
D10*
%TO.C,U2*%
X162656200Y-74942000D03*
D11*
X165196200Y-74942000D03*
X167736200Y-74942000D03*
X170276200Y-74942000D03*
X172816200Y-74942000D03*
X175356200Y-74942000D03*
X177896200Y-74942000D03*
X180436200Y-74942000D03*
X180436200Y-67322000D03*
X177896200Y-67322000D03*
X175356200Y-67322000D03*
X172816200Y-67322000D03*
X170276200Y-67322000D03*
X167736200Y-67322000D03*
X165196200Y-67322000D03*
X162656200Y-67322000D03*
%TD*%
D15*
%TO.C,J5*%
X193311200Y-76831600D03*
D16*
X193311200Y-74291600D03*
X193311200Y-71751600D03*
X193311200Y-69211600D03*
X193311200Y-66671600D03*
X193311200Y-64131600D03*
X193311200Y-61591600D03*
X193311200Y-59051600D03*
X193311200Y-56511600D03*
X193311200Y-53971600D03*
X193311200Y-51431600D03*
X193311200Y-48891600D03*
X193311200Y-46351600D03*
X193311200Y-43811600D03*
X193311200Y-41271600D03*
X193311200Y-38731600D03*
%TD*%
D14*
%TO.C,C3*%
X119051200Y-36877000D03*
X121551200Y-36877000D03*
%TD*%
D19*
%TO.C,J2*%
X109236200Y-68042000D03*
D18*
X106696200Y-68042000D03*
X104156200Y-68042000D03*
X101616200Y-68042000D03*
%TD*%
D19*
%TO.C,J1*%
X109236200Y-75027000D03*
D18*
X106696200Y-75027000D03*
X104156200Y-75027000D03*
%TD*%
D17*
%TO.C,J4*%
X97491200Y-46372000D03*
D18*
X100031200Y-46372000D03*
X102571200Y-46372000D03*
X105111200Y-46372000D03*
X107651200Y-46372000D03*
X110191200Y-46372000D03*
%TD*%
D20*
%TO.C,RV1*%
X154721200Y-46482000D03*
X164721200Y-43982000D03*
X154721200Y-41482000D03*
%TD*%
D21*
%TO.C,LED7*%
X157161200Y-105932000D03*
X157161200Y-104662000D03*
X157161200Y-103392000D03*
X157161200Y-102122000D03*
%TD*%
%TO.C,LED3*%
X157451200Y-59347000D03*
X157451200Y-58077000D03*
X157451200Y-56807000D03*
X157451200Y-55537000D03*
%TD*%
D22*
%TO.C,VFD8*%
X185311200Y-98719648D03*
D23*
X187507352Y-100915800D03*
D24*
X188311200Y-103915800D03*
D25*
X187507352Y-106915800D03*
D26*
X185311200Y-109111952D03*
D27*
X182311200Y-109915800D03*
D28*
X179311201Y-109111952D03*
D29*
X177115048Y-106915800D03*
D24*
X176311200Y-103915800D03*
D25*
X177115048Y-100915801D03*
D26*
X179311201Y-98719648D03*
%TD*%
D22*
%TO.C,VFD6*%
X135161200Y-98719648D03*
D23*
X137357352Y-100915800D03*
D24*
X138161200Y-103915800D03*
D25*
X137357352Y-106915800D03*
D26*
X135161200Y-109111952D03*
D27*
X132161200Y-109915800D03*
D28*
X129161201Y-109111952D03*
D29*
X126965048Y-106915800D03*
D24*
X126161200Y-103915800D03*
D25*
X126965048Y-100915801D03*
D26*
X129161201Y-98719648D03*
%TD*%
D22*
%TO.C,VFD2*%
X135416500Y-52115248D03*
D23*
X137612652Y-54311400D03*
D24*
X138416500Y-57311400D03*
D25*
X137612652Y-60311400D03*
D26*
X135416500Y-62507552D03*
D27*
X132416500Y-63311400D03*
D28*
X129416501Y-62507552D03*
D29*
X127220348Y-60311400D03*
D24*
X126416500Y-57311400D03*
D25*
X127220348Y-54311401D03*
D26*
X129416501Y-52115248D03*
%TD*%
D22*
%TO.C,VFD7*%
X160161200Y-98719648D03*
D23*
X162357352Y-100915800D03*
D24*
X163161200Y-103915800D03*
D25*
X162357352Y-106915800D03*
D26*
X160161200Y-109111952D03*
D27*
X157161200Y-109915800D03*
D28*
X154161201Y-109111952D03*
D29*
X151965048Y-106915800D03*
D24*
X151161200Y-103915800D03*
D25*
X151965048Y-100915801D03*
D26*
X154161201Y-98719648D03*
%TD*%
D21*
%TO.C,LED4*%
X182427300Y-59347000D03*
X182427300Y-58077000D03*
X182427300Y-56807000D03*
X182427300Y-55537000D03*
%TD*%
%TO.C,LED2*%
X132451200Y-59347000D03*
X132451200Y-58077000D03*
X132451200Y-56807000D03*
X132451200Y-55537000D03*
%TD*%
%TO.C,LED5*%
X107161200Y-105932000D03*
X107161200Y-104662000D03*
X107161200Y-103392000D03*
X107161200Y-102122000D03*
%TD*%
D22*
%TO.C,VFD1*%
X110411200Y-52148048D03*
D23*
X112607352Y-54344200D03*
D24*
X113411200Y-57344200D03*
D25*
X112607352Y-60344200D03*
D26*
X110411200Y-62540352D03*
D27*
X107411200Y-63344200D03*
D28*
X104411201Y-62540352D03*
D29*
X102215048Y-60344200D03*
D24*
X101411200Y-57344200D03*
D25*
X102215048Y-54344201D03*
D26*
X104411201Y-52148048D03*
%TD*%
D21*
%TO.C,LED6*%
X132161200Y-105932000D03*
X132161200Y-104662000D03*
X132161200Y-103392000D03*
X132161200Y-102122000D03*
%TD*%
D22*
%TO.C,VFD3*%
X160421900Y-52180848D03*
D23*
X162618052Y-54377000D03*
D24*
X163421900Y-57377000D03*
D25*
X162618052Y-60377000D03*
D26*
X160421900Y-62573152D03*
D27*
X157421900Y-63377000D03*
D28*
X154421901Y-62573152D03*
D29*
X152225748Y-60377000D03*
D24*
X151421900Y-57377000D03*
D25*
X152225748Y-54377001D03*
D26*
X154421901Y-52180848D03*
%TD*%
D21*
%TO.C,LED1*%
X107411200Y-59347000D03*
X107411200Y-58077000D03*
X107411200Y-56807000D03*
X107411200Y-55537000D03*
%TD*%
D22*
%TO.C,VFD5*%
X110165000Y-98765848D03*
D23*
X112361152Y-100962000D03*
D24*
X113165000Y-103962000D03*
D25*
X112361152Y-106962000D03*
D26*
X110165000Y-109158152D03*
D27*
X107165000Y-109962000D03*
D28*
X104165001Y-109158152D03*
D29*
X101968848Y-106962000D03*
D24*
X101165000Y-103962000D03*
D25*
X101968848Y-100962001D03*
D26*
X104165001Y-98765848D03*
%TD*%
D22*
%TO.C,VFD4*%
X185427300Y-52213648D03*
D23*
X187623452Y-54409800D03*
D24*
X188427300Y-57409800D03*
D25*
X187623452Y-60409800D03*
D26*
X185427300Y-62605952D03*
D27*
X182427300Y-63409800D03*
D28*
X179427301Y-62605952D03*
D29*
X177231148Y-60409800D03*
D24*
X176427300Y-57409800D03*
D25*
X177231148Y-54409801D03*
D26*
X179427301Y-52213648D03*
%TD*%
D21*
%TO.C,LED8*%
X182311200Y-105932000D03*
X182311200Y-104662000D03*
X182311200Y-103392000D03*
X182311200Y-102122000D03*
%TD*%
M02*
