M48
; DRILL file {KiCad 7.0.1} date Sun May 21 16:34:42 2023
; FORMAT={-:-/ absolute / inch / decimal}
; #@! TF.CreationDate,2023-05-21T16:34:42+02:00
; #@! TF.GenerationSoftware,Kicad,Pcbnew,7.0.1
; #@! TF.FileFunction,Plated,1,2,PTH
FMAT,2
INCH
; #@! TA.AperFunction,Plated,PTH,ViaDrill
T1C0.0157
; #@! TA.AperFunction,Plated,PTH,ViaDrill
T2C0.0236
; #@! TA.AperFunction,Plated,PTH,ComponentDrill
T3C0.0256
; #@! TA.AperFunction,Plated,PTH,ComponentDrill
T4C0.0315
; #@! TA.AperFunction,Plated,PTH,ComponentDrill
T5C0.0394
; #@! TA.AperFunction,Plated,PTH,ComponentDrill
T6C0.0469
; #@! TA.AperFunction,Plated,PTH,ComponentDrill
T7C0.0512
; #@! TA.AperFunction,Plated,PTH,ComponentDrill
T8C0.1260
%
G90
G05
T1
X3.8397Y-4.0547
X3.8619Y-4.0137
X3.9774Y-4.4661
X4.4455Y-1.6215
X4.531Y-3.8887
X4.5388Y-4.432
X4.59Y-3.8493
X4.6451Y-3.8887
X7.0102Y-2.4278
X7.1151Y-2.1524
X7.1315Y-1.9652
T2
X4.0127Y-4.2831
T3
X4.2189Y-4.0206
X4.2189Y-4.0706
X4.2189Y-4.1206
X4.2189Y-4.1706
X4.2288Y-2.1865
X4.2288Y-2.2365
X4.2288Y-2.2865
X4.2288Y-2.3365
X5.2032Y-4.0206
X5.2032Y-4.0706
X5.2032Y-4.1206
X5.2032Y-4.1706
X5.2146Y-2.1865
X5.2146Y-2.2365
X5.2146Y-2.2865
X5.2146Y-2.3365
X6.1874Y-4.0206
X6.1874Y-4.0706
X6.1874Y-4.1206
X6.1874Y-4.1706
X6.1989Y-2.1865
X6.1989Y-2.2365
X6.1989Y-2.2865
X6.1989Y-2.3365
X7.1776Y-4.0206
X7.1776Y-4.0706
X7.1776Y-4.1206
X7.1776Y-4.1706
X7.1822Y-2.1865
X7.1822Y-2.2365
X7.1822Y-2.2865
X7.1822Y-2.3365
T4
X3.9829Y-4.093
X3.9926Y-2.2576
X4.0145Y-3.9749
X4.0145Y-4.2111
X4.0242Y-2.1395
X4.0242Y-2.3758
X4.101Y-3.8884
X4.101Y-4.2976
X4.1107Y-2.0531
X4.1107Y-2.4622
X4.2191Y-4.3292
X4.2288Y-2.4939
X4.3372Y-3.8884
X4.3372Y-4.2976
X4.3469Y-2.0531
X4.3469Y-2.4622
X4.4237Y-3.9749
X4.4237Y-4.2111
X4.4334Y-2.1395
X4.4334Y-2.3758
X4.4553Y-4.093
X4.465Y-2.2576
X4.5038Y-2.6481
X4.5038Y-2.9481
X4.6038Y-2.6481
X4.6038Y-2.9481
X4.6863Y-1.5727
X4.6863Y-1.8727
X4.6871Y-1.4519
X4.7038Y-2.6481
X4.7038Y-2.9481
X4.7855Y-1.4519
X4.7863Y-1.5727
X4.7863Y-1.8727
X4.8038Y-2.6481
X4.8038Y-2.9481
X4.8863Y-1.5727
X4.8863Y-1.8727
X4.9038Y-2.6481
X4.9038Y-2.9481
X4.967Y-4.0912
X4.977Y-2.2564
X4.9863Y-1.5727
X4.9863Y-1.8727
X4.9986Y-3.9731
X4.9986Y-4.2093
X5.0038Y-2.6481
X5.0038Y-2.9481
X5.0087Y-2.1382
X5.0087Y-2.3745
X5.0851Y-3.8866
X5.0851Y-4.2957
X5.0863Y-1.5727
X5.0863Y-1.8727
X5.0951Y-2.0518
X5.0951Y-2.4609
X5.1038Y-2.6481
X5.1038Y-2.9481
X5.1863Y-1.5727
X5.1863Y-1.8727
X5.2032Y-4.3274
X5.2038Y-2.6481
X5.2038Y-2.9481
X5.2132Y-2.4926
X5.2863Y-1.5727
X5.2863Y-1.8727
X5.3038Y-2.6481
X5.3038Y-2.9481
X5.3213Y-3.8866
X5.3213Y-4.2957
X5.3314Y-2.0518
X5.3314Y-2.4609
X5.3863Y-1.5727
X5.3863Y-1.8727
X5.4078Y-3.9731
X5.4078Y-4.2093
X5.4178Y-2.1382
X5.4178Y-2.3745
X5.4394Y-4.0912
X5.4495Y-2.2564
X5.4538Y-2.6505
X5.4538Y-2.9505
X5.5288Y-1.9981
X5.5292Y-1.5727
X5.5292Y-1.8727
X5.5538Y-2.6505
X5.5538Y-2.9505
X5.6292Y-1.5727
X5.6292Y-1.8727
X5.6538Y-2.6505
X5.6538Y-2.9505
X5.7292Y-1.5727
X5.7292Y-1.8727
X5.7538Y-2.6505
X5.7538Y-2.9505
X5.8288Y-1.9981
X5.8292Y-1.5727
X5.8292Y-1.8727
X5.8538Y-2.6505
X5.8538Y-2.9505
X5.9512Y-4.0912
X5.9538Y-2.6505
X5.9538Y-2.9505
X5.9615Y-2.2589
X5.9632Y-1.5515
X5.9632Y-1.6499
X5.9632Y-1.7515
X5.9632Y-1.8499
X5.9829Y-3.9731
X5.9829Y-4.2093
X5.9931Y-2.1408
X5.9931Y-2.377
X6.0538Y-2.6505
X6.0538Y-2.9505
X6.0693Y-3.8866
X6.0693Y-4.2957
X6.0796Y-2.0544
X6.0796Y-2.4635
X6.1538Y-2.6505
X6.1538Y-2.9505
X6.1874Y-4.3274
X6.1977Y-2.4952
X6.2538Y-2.6505
X6.2538Y-2.9505
X6.3056Y-3.8866
X6.3056Y-4.2957
X6.3158Y-2.0544
X6.3158Y-2.4635
X6.392Y-3.9731
X6.392Y-4.2093
X6.4023Y-2.1408
X6.4023Y-2.377
X6.4038Y-2.6505
X6.4038Y-2.9505
X6.4237Y-4.0912
X6.4339Y-2.2589
X6.5038Y-2.6505
X6.5038Y-2.9505
X6.6022Y-2.5288
X6.6038Y-2.6505
X6.6038Y-2.9505
X6.6132Y-1.5507
X6.7006Y-2.5288
X6.7038Y-2.6505
X6.7038Y-2.9505
X6.8038Y-2.6505
X6.8038Y-2.9505
X6.9038Y-2.6505
X6.9038Y-2.9505
X6.9132Y-1.5507
X6.9414Y-4.0912
X6.946Y-2.2602
X6.973Y-3.9731
X6.973Y-4.2093
X6.9776Y-2.1421
X6.9776Y-2.3783
X7.0038Y-2.6505
X7.0038Y-2.9505
X7.0595Y-3.8866
X7.0595Y-4.2957
X7.0641Y-2.0557
X7.0641Y-2.4648
X7.1038Y-2.6505
X7.1038Y-2.9505
X7.1776Y-4.3274
X7.1822Y-2.4964
X7.2957Y-3.8866
X7.2957Y-4.2957
X7.3003Y-2.0557
X7.3003Y-2.4648
X7.3822Y-3.9731
X7.3822Y-4.2093
X7.3868Y-2.1421
X7.3868Y-2.3783
X7.4138Y-4.0912
X7.4184Y-2.2602
T5
X3.78Y-3.355
X3.78Y-3.455
X3.78Y-3.555
X3.78Y-3.655
X3.78Y-3.755
X3.78Y-3.855
X3.78Y-3.955
X3.78Y-4.055
X3.78Y-4.155
X3.78Y-4.255
X3.78Y-4.355
X3.78Y-4.455
X3.78Y-4.555
X3.78Y-4.655
X3.78Y-4.755
X3.78Y-4.855
X6.6132Y-1.7007
X6.6132Y-1.8007
X6.6132Y-1.9007
X7.6107Y-1.5249
X7.6107Y-1.6249
X7.6107Y-1.7249
X7.6107Y-1.8249
X7.6107Y-1.9249
X7.6107Y-2.0249
X7.6107Y-2.1249
X7.6107Y-2.2249
X7.6107Y-2.3249
X7.6107Y-2.4249
X7.6107Y-2.5249
X7.6107Y-2.6249
X7.6107Y-2.7249
X7.6107Y-2.8249
X7.6107Y-2.9249
X7.6107Y-3.0249
T6
X3.8382Y-1.8257
X3.9382Y-1.8257
X4.0006Y-2.6788
X4.0382Y-1.8257
X4.1006Y-2.6788
X4.1006Y-2.9538
X4.1382Y-1.8257
X4.2006Y-2.6788
X4.2006Y-2.9538
X4.2382Y-1.8257
X4.3006Y-2.6788
X4.3006Y-2.9538
X4.3382Y-1.8257
X4.4382Y-1.8257
X4.5382Y-1.8257
T7
X6.0914Y-1.6331
X6.0914Y-1.83
X6.4851Y-1.7316
T8
X7.0432Y-1.8001
T0
M30
